<svg width="24" height="24" viewBox="0 0 688 560" xmlns="http://www.w3.org/2000/svg">
<path fill="currentColor" d="M427.168243,457.442017 C425.819122,449.547241 423.122101,442.318848 423.698853,434.462524 C424.032776,429.914001 425.421570,427.767212 430.231689,427.856354 C439.058594,428.019928 447.892212,427.829376 456.722809,427.758575 C456.989899,427.756439 457.254486,427.444214 457.613678,427.217621 C457.368073,424.951355 455.354034,424.054169 453.930939,422.847504 C426.377777,399.484528 398.745331,376.215057 371.189789,352.854889 C338.934082,325.510132 306.717010,298.119751 274.524414,270.700714 C263.622467,261.415314 251.237717,256.257751 236.860092,258.389954 C224.588470,260.209808 214.408875,266.309784 206.747726,276.301849 C198.280991,287.344604 196.126556,300.166443 198.781265,313.162415 C201.634323,327.129364 210.490723,337.448029 223.204498,344.321960 C245.801773,356.539642 261.327179,374.634644 269.692413,399.149078 C276.152985,418.081879 276.479950,437.190247 271.224670,455.981201 C262.255310,488.052368 241.076370,509.933716 210.174667,521.633545 C191.969528,528.526184 172.825363,529.437866 153.804306,524.138000 C126.864838,516.631836 106.537056,500.387177 92.624367,476.312164 C85.404640,463.818909 82.311050,449.878174 80.875931,435.614410 C80.270752,429.599457 82.016541,427.910706 88.311928,427.888519 C109.477066,427.813904 130.643753,427.674530 151.806763,427.879456 C156.687561,427.926727 158.018784,426.315094 158.008911,421.582581 C157.912659,375.419159 158.026703,329.255280 158.064957,283.091553 C158.073288,273.046356 158.006531,273.179047 148.222565,270.409668 C130.560287,265.410309 116.306786,255.080124 104.342049,241.462097 C95.698990,231.624725 88.901611,220.410675 85.384003,207.892380 C81.355713,193.556671 79.421127,179.007889 81.986130,163.705536 C86.019867,139.640930 97.013763,119.981712 115.270241,104.354942 C129.280640,92.362617 145.611206,85.652557 164.019913,82.359856 C182.126755,79.121147 198.950943,82.425873 215.142990,88.878105 C233.754211,96.294342 248.862305,108.983948 259.459839,126.259476 C268.245300,140.581024 274.225616,155.961258 274.186584,173.133392 C274.172791,179.207626 273.827942,179.456848 267.561615,179.422638 C256.399597,179.361694 245.237259,179.342056 234.075058,179.337830 C232.780487,179.337341 231.485855,179.543945 229.507782,179.712921 C231.162796,183.495758 234.324875,185.233521 236.816971,187.352783 C267.624573,213.551376 298.528259,239.637009 329.411530,265.746613 C359.791107,291.430359 390.169800,317.115234 420.559967,342.786438 C445.261963,363.652771 484.472687,355.710846 496.803162,324.932526 C505.321411,303.670074 500.016693,279.107697 476.978882,265.558533 C455.370453,252.850006 438.942017,236.040833 429.762634,212.732635 C426.329376,204.015015 424.026337,194.849915 423.668365,185.203110 C423.151154,171.264481 424.164307,157.627075 429.282501,144.593735 C436.765991,125.537285 448.635315,109.701973 465.656647,98.148033 C482.876007,86.459763 502.107361,79.962250 522.895142,81.012749 C554.479553,82.608826 580.287292,96.149918 599.078735,121.991783 C609.973450,136.974136 615.598267,153.941711 617.169556,172.332947 C617.695557,178.490234 616.431702,179.951859 609.929321,179.958038 C589.097534,179.977875 568.265686,179.954498 547.433899,179.947815 C540.135315,179.945480 540.114441,179.949387 540.114868,187.056870 C540.117493,234.387115 540.178101,281.717499 540.046021,329.047363 C540.034790,333.066040 541.167969,335.069885 545.111877,336.148163 C565.103394,341.613831 581.901733,352.234558 595.002258,368.336823 C603.768311,379.111511 609.942993,391.140839 613.692261,404.742493 C617.732727,419.400574 618.472900,433.930450 615.441162,448.591919 C610.010620,474.854095 595.976257,495.510254 573.712952,510.584015 C557.116211,521.821167 538.780334,527.883301 518.841675,527.022888 C484.786621,525.553284 457.754974,510.774841 438.717651,482.078827 C433.714264,474.536957 430.447113,466.222565 427.168243,457.442017z"/>
</svg>
